<?xml version="1.0" encoding="iso-8859-1"?>
<!-- Generator: Adobe Illustrator 19.0.0, SVG Export Plug-In . SVG Version: 6.00 Build 0)  -->
<svg version="1.1" id="Layer_1" xmlns="http://www.w3.org/2000/svg" xmlns:xlink="http://www.w3.org/1999/xlink" x="0px" y="0px"
	 viewBox="0 0 512 512" style="enable-background:new 0 0 512 512;" xml:space="preserve">
<circle style="fill:#71B84F;" cx="255.84" cy="255.92" r="255.84"/>
<path style="fill:#63A147;" d="M264.665,511.605l-99.249-99.249l11.343-20.48h12.288v-71.365h25.836l-4.569-6.144v-9.137h15.439
	v-14.178l20.638-19.22l0.788-23.946l-60.652-60.652l-19.85-34.658l-13.706-47.892l56.556,15.911l102.558-20.953l13.548,14.494
	l33.556-9.452L512,256.236c0,138.319-109.804,251.116-247.178,255.685L264.665,511.605z"/>
<path style="fill:#E84F4F;" d="M188.889,320.512h133.908v71.365H188.889V320.512z"/>
<g>
	<path style="fill:#C94545;" d="M176.601,391.877h158.484l11.343,20.48h-181.17L176.601,391.877z"/>
	<path style="fill:#C94545;" d="M322.796,320.512l-28.83,15.281v7.877c6.459,0.473,11.5,5.829,11.5,12.288l0,0
		c0,6.459-5.041,11.973-11.5,12.288v8.507h-76.091v-0.63l-29.145,15.439h133.908v-71.365L322.796,320.512z"/>
</g>
<path style="fill:#FFD630;" d="M244.185,99.486h22.843h44.583v8.35c0,0-4.726,5.041-9.61,12.603l56.714-16.069l-0.473,6.932
	c0,0-2.678,59.392-59.707,96.886c-6.774,15.911-24.418,20.795-30.247,22.055v5.514h3.938v11.815h-7.562l0.315,23.946l20.638,19.22
	v14.178h15.439v9.137h-31.98h-27.412h-31.98v-9.137h15.439v-14.178l20.638-19.22l0.315-23.946h-7.562v-11.815h3.938v-5.514
	c-5.829-1.26-23.473-6.144-30.247-22.055c-57.186-37.494-59.707-96.886-59.707-96.886l-0.158-6.932l56.556,15.911
	c-4.884-7.562-9.61-12.603-9.61-12.603v-8.35h44.583L244.185,99.486z M295.857,132.254c-1.89,4.411-3.308,8.98-3.781,13.706
	c-1.89,16.699,9.767,29.145,9.61,47.262c27.727-18.432,46.631-58.289,46.631-75.934L295.857,132.254z M209.526,193.22
	c-0.158-18.117,11.5-30.562,9.61-47.262c-0.473-4.726-1.89-9.295-3.781-13.706l-52.46-14.966
	C162.895,134.773,181.799,174.789,209.526,193.22z"/>
<path style="fill:#F5BE18;" d="M255.685,99.486h11.5h44.583v8.35c0,0-4.726,5.041-9.61,12.603l56.714-16.069l-0.473,6.932
	c0,0-2.678,59.392-59.707,96.886c-6.774,15.911-24.418,20.795-30.247,22.055v5.514h3.938v11.815h-7.562l0.315,23.946l20.638,19.22
	v14.178h15.439v9.137h-31.98h-13.706V99.328L255.685,99.486z M295.857,132.254c-1.89,4.411-3.308,8.98-3.781,13.706
	c-1.89,16.699,9.767,29.145,9.61,47.262c27.727-18.432,46.631-58.289,46.631-75.934L295.857,132.254z"/>
<path style="fill:#EFEFF0;" d="M218.033,335.163h76.091v8.507c6.459,0.473,11.5,5.829,11.5,12.288l0,0
	c0,6.459-5.041,11.973-11.5,12.288v8.507h-76.091v-8.507c-6.459-0.473-11.5-5.829-11.5-12.288l0,0c0-6.459,5.041-11.973,11.5-12.288
	L218.033,335.163L218.033,335.163z"/>
<g>
</g>
<g>
</g>
<g>
</g>
<g>
</g>
<g>
</g>
<g>
</g>
<g>
</g>
<g>
</g>
<g>
</g>
<g>
</g>
<g>
</g>
<g>
</g>
<g>
</g>
<g>
</g>
<g>
</g>
</svg>
